<?xml version="1.0" encoding="UTF-8" standalone="no"?><!DOCTYPE svg PUBLIC "-//W3C//DTD SVG 1.1//EN" "http://www.w3.org/Graphics/SVG/1.1/DTD/svg11.dtd"><!-- Generated by graphviz version 2.40.1 (20161225.0304)
 --><!-- Title: %0 Pages: 1 --><svg xmlns="http://www.w3.org/2000/svg" xmlns:xlink="http://www.w3.org/1999/xlink" width="1212pt" height="8449pt" viewBox="0.00 0.00 1211.65 8449.27">
<g id="graph0" class="graph" transform="scale(1 1) rotate(0) translate(4 8445.2682)">
<title>%0</title>
<polygon fill="#ffffff" stroke="transparent" points="-4,4 -4,-8445.2682 1207.6521,-8445.2682 1207.6521,4 -4,4"/>
<!-- n0 -->
<g id="node1" class="node">
<title>n0</title>
<ellipse fill="#1e90ff" stroke="#000000" cx="1037.5309" cy="-8380.8828" rx="60.2711" ry="60.2711"/>
<text text-anchor="middle" x="1037.5309" y="-8376.6828" font-family="Times,serif" font-size="14.00" fill="#000000">X:1 Y:0 C:()</text>
</g>
<!-- n1 -->
<g id="node2" class="node">
<title>n1</title>
<ellipse fill="none" stroke="#000000" cx="1037.5309" cy="-8224.1119" rx="60.2711" ry="60.2711"/>
<text text-anchor="middle" x="1037.5309" y="-8219.9119" font-family="Times,serif" font-size="14.00" fill="#000000">X:1 Y:1 C:()</text>
</g>
<!-- n0&#45;&gt;n1 -->
<g id="edge1" class="edge">
<title>n0-&gt;n1</title>
<path fill="none" stroke="#000000" d="M1030.9457,-8320.7194C1030.7882,-8312.1548 1030.7436,-8303.2828 1030.8119,-8294.5442"/>
<polygon fill="#000000" stroke="#000000" points="1034.3137,-8294.4179 1030.9439,-8284.3733 1027.3143,-8294.327 1034.3137,-8294.4179"/>
</g>
<!-- n1&#45;&gt;n0 -->
<g id="edge2" class="edge">
<title>n1-&gt;n0</title>
<path fill="none" stroke="#000000" d="M1044.1179,-8284.3733C1044.2745,-8292.9403 1044.3183,-8301.8128 1044.2491,-8310.5505"/>
<polygon fill="#000000" stroke="#000000" points="1040.7473,-8310.6744 1044.1161,-8320.7194 1047.7467,-8310.7661 1040.7473,-8310.6744"/>
</g>
<!-- n2 -->
<g id="node3" class="node">
<title>n2</title>
<ellipse fill="none" stroke="#000000" cx="1037.5309" cy="-8067.341" rx="60.2711" ry="60.2711"/>
<text text-anchor="middle" x="1037.5309" y="-8063.141" font-family="Times,serif" font-size="14.00" fill="#000000">X:1 Y:2 C:()</text>
</g>
<!-- n1&#45;&gt;n2 -->
<g id="edge3" class="edge">
<title>n1-&gt;n2</title>
<path fill="none" stroke="#000000" d="M1030.9457,-8163.9485C1030.7882,-8155.3839 1030.7436,-8146.512 1030.8119,-8137.7733"/>
<polygon fill="#000000" stroke="#000000" points="1034.3137,-8137.647 1030.9439,-8127.6024 1027.3143,-8137.5561 1034.3137,-8137.647"/>
</g>
<!-- n2&#45;&gt;n1 -->
<g id="edge4" class="edge">
<title>n2-&gt;n1</title>
<path fill="none" stroke="#000000" d="M1044.1179,-8127.6024C1044.2745,-8136.1694 1044.3183,-8145.042 1044.2491,-8153.7796"/>
<polygon fill="#000000" stroke="#000000" points="1040.7473,-8153.9036 1044.1161,-8163.9485 1047.7467,-8153.9952 1040.7473,-8153.9036"/>
</g>
<!-- n3 -->
<g id="node4" class="node">
<title>n3</title>
<ellipse fill="none" stroke="#000000" cx="1037.5309" cy="-7910.5702" rx="60.2711" ry="60.2711"/>
<text text-anchor="middle" x="1037.5309" y="-7906.3702" font-family="Times,serif" font-size="14.00" fill="#000000">X:1 Y:3 C:()</text>
</g>
<!-- n2&#45;&gt;n3 -->
<g id="edge5" class="edge">
<title>n2-&gt;n3</title>
<path fill="none" stroke="#000000" d="M1030.9457,-8007.1777C1030.7882,-7998.613 1030.7436,-7989.7411 1030.8119,-7981.0025"/>
<polygon fill="#000000" stroke="#000000" points="1034.3137,-7980.8762 1030.9439,-7970.8316 1027.3143,-7980.7853 1034.3137,-7980.8762"/>
</g>
<!-- n3&#45;&gt;n2 -->
<g id="edge6" class="edge">
<title>n3-&gt;n2</title>
<path fill="none" stroke="#000000" d="M1044.1179,-7970.8316C1044.2745,-7979.3986 1044.3183,-7988.2711 1044.2491,-7997.0088"/>
<polygon fill="#000000" stroke="#000000" points="1040.7473,-7997.1327 1044.1161,-8007.1777 1047.7467,-7997.2244 1040.7473,-7997.1327"/>
</g>
<!-- n4 -->
<g id="node5" class="node">
<title>n4</title>
<ellipse fill="none" stroke="#000000" cx="1037.5309" cy="-7753.7993" rx="60.2711" ry="60.2711"/>
<text text-anchor="middle" x="1037.5309" y="-7749.5993" font-family="Times,serif" font-size="14.00" fill="#000000">X:1 Y:4 C:()</text>
</g>
<!-- n3&#45;&gt;n4 -->
<g id="edge7" class="edge">
<title>n3-&gt;n4</title>
<path fill="none" stroke="#000000" d="M1030.9457,-7850.4068C1030.7882,-7841.8422 1030.7436,-7832.9703 1030.8119,-7824.2316"/>
<polygon fill="#000000" stroke="#000000" points="1034.3137,-7824.1053 1030.9439,-7814.0607 1027.3143,-7824.0144 1034.3137,-7824.1053"/>
</g>
<!-- n4&#45;&gt;n3 -->
<g id="edge8" class="edge">
<title>n4-&gt;n3</title>
<path fill="none" stroke="#000000" d="M1044.1179,-7814.0607C1044.2745,-7822.6277 1044.3183,-7831.5003 1044.2491,-7840.2379"/>
<polygon fill="#000000" stroke="#000000" points="1040.7473,-7840.3619 1044.1161,-7850.4068 1047.7467,-7840.4535 1040.7473,-7840.3619"/>
</g>
<!-- n5 -->
<g id="node6" class="node">
<title>n5</title>
<ellipse fill="none" stroke="#000000" cx="1037.5309" cy="-7573.6992" rx="83.9299" ry="83.9299"/>
<text text-anchor="middle" x="1037.5309" y="-7569.4992" font-family="Times,serif" font-size="14.00" fill="#000000">X:2 Y:4 C:((2, 4),)</text>
</g>
<!-- n4&#45;&gt;n5 -->
<g id="edge9" class="edge">
<title>n4-&gt;n5</title>
<path fill="none" stroke="#000000" d="M1037.5309,-7693.3276C1037.5309,-7685.1014 1037.5309,-7676.5046 1037.5309,-7667.8573"/>
<polygon fill="#000000" stroke="#000000" points="1041.031,-7667.702 1037.5309,-7657.702 1034.031,-7667.702 1041.031,-7667.702"/>
</g>
<!-- n6 -->
<g id="node7" class="node">
<title>n6</title>
<ellipse fill="none" stroke="#000000" cx="1037.5309" cy="-7370.2699" rx="83.9299" ry="83.9299"/>
<text text-anchor="middle" x="1037.5309" y="-7366.0699" font-family="Times,serif" font-size="14.00" fill="#000000">X:1 Y:4 C:((2, 4),)</text>
</g>
<!-- n5&#45;&gt;n6 -->
<g id="edge10" class="edge">
<title>n5-&gt;n6</title>
<path fill="none" stroke="#000000" d="M1037.5309,-7489.7823C1037.5309,-7481.2864 1037.5309,-7472.6196 1037.5309,-7464.0289"/>
<polygon fill="#000000" stroke="#000000" points="1041.031,-7463.994 1037.5309,-7453.994 1034.031,-7463.9941 1041.031,-7463.994"/>
</g>
<!-- n7 -->
<g id="node8" class="node">
<title>n7</title>
<ellipse fill="none" stroke="#000000" cx="1037.5309" cy="-7166.8405" rx="83.9299" ry="83.9299"/>
<text text-anchor="middle" x="1037.5309" y="-7162.6405" font-family="Times,serif" font-size="14.00" fill="#000000">X:1 Y:3 C:((2, 4),)</text>
</g>
<!-- n6&#45;&gt;n7 -->
<g id="edge11" class="edge">
<title>n6-&gt;n7</title>
<path fill="none" stroke="#000000" d="M1037.5309,-7286.3529C1037.5309,-7277.8571 1037.5309,-7269.1903 1037.5309,-7260.5996"/>
<polygon fill="#000000" stroke="#000000" points="1041.031,-7260.5647 1037.5309,-7250.5647 1034.031,-7260.5647 1041.031,-7260.5647"/>
</g>
<!-- n8 -->
<g id="node9" class="node">
<title>n8</title>
<ellipse fill="none" stroke="#000000" cx="1037.5309" cy="-6963.4112" rx="83.9299" ry="83.9299"/>
<text text-anchor="middle" x="1037.5309" y="-6959.2112" font-family="Times,serif" font-size="14.00" fill="#000000">X:1 Y:2 C:((2, 4),)</text>
</g>
<!-- n7&#45;&gt;n8 -->
<g id="edge12" class="edge">
<title>n7-&gt;n8</title>
<path fill="none" stroke="#000000" d="M1037.5309,-7082.9236C1037.5309,-7074.4277 1037.5309,-7065.7609 1037.5309,-7057.1703"/>
<polygon fill="#000000" stroke="#000000" points="1041.031,-7057.1353 1037.5309,-7047.1353 1034.031,-7057.1354 1041.031,-7057.1353"/>
</g>
<!-- n9 -->
<g id="node10" class="node">
<title>n9</title>
<ellipse fill="none" stroke="#000000" cx="1037.5309" cy="-6759.9819" rx="83.9299" ry="83.9299"/>
<text text-anchor="middle" x="1037.5309" y="-6755.7819" font-family="Times,serif" font-size="14.00" fill="#000000">X:1 Y:1 C:((2, 4),)</text>
</g>
<!-- n8&#45;&gt;n9 -->
<g id="edge13" class="edge">
<title>n8-&gt;n9</title>
<path fill="none" stroke="#000000" d="M1037.5309,-6879.4942C1037.5309,-6870.9984 1037.5309,-6862.3316 1037.5309,-6853.7409"/>
<polygon fill="#000000" stroke="#000000" points="1041.031,-6853.706 1037.5309,-6843.706 1034.031,-6853.706 1041.031,-6853.706"/>
</g>
<!-- n10 -->
<g id="node11" class="node">
<title>n10</title>
<ellipse fill="none" stroke="#000000" cx="1037.5309" cy="-6556.5525" rx="83.9299" ry="83.9299"/>
<text text-anchor="middle" x="1037.5309" y="-6552.3525" font-family="Times,serif" font-size="14.00" fill="#000000">X:1 Y:0 C:((2, 4),)</text>
</g>
<!-- n9&#45;&gt;n10 -->
<g id="edge14" class="edge">
<title>n9-&gt;n10</title>
<path fill="none" stroke="#000000" d="M1030.8767,-6676.3587C1030.7849,-6667.7732 1030.7591,-6659.0101 1030.7992,-6650.3246"/>
<polygon fill="#000000" stroke="#000000" points="1034.3001,-6650.2061 1030.8767,-6640.1797 1027.3003,-6650.1526 1034.3001,-6650.2061"/>
</g>
<!-- n10&#45;&gt;n9 -->
<g id="edge15" class="edge">
<title>n10-&gt;n9</title>
<path fill="none" stroke="#000000" d="M1044.1851,-6640.1797C1044.2769,-6648.7652 1044.3027,-6657.5284 1044.2625,-6666.2138"/>
<polygon fill="#000000" stroke="#000000" points="1040.7616,-6666.3322 1044.1851,-6676.3587 1047.7614,-6666.3858 1040.7616,-6666.3322"/>
</g>
<!-- n11 -->
<g id="node12" class="node">
<title>n11</title>
<ellipse fill="none" stroke="#000000" cx="1037.5309" cy="-6329.7939" rx="107.0879" ry="107.0879"/>
<text text-anchor="middle" x="1037.5309" y="-6325.5939" font-family="Times,serif" font-size="14.00" fill="#000000">X:2 Y:0 C:((2, 4), (2, 0))</text>
</g>
<!-- n10&#45;&gt;n11 -->
<g id="edge16" class="edge">
<title>n10-&gt;n11</title>
<path fill="none" stroke="#000000" d="M1037.5309,-6472.7602C1037.5309,-6464.4178 1037.5309,-6455.8455 1037.5309,-6447.242"/>
<polygon fill="#000000" stroke="#000000" points="1041.031,-6447.1396 1037.5309,-6437.1397 1034.031,-6447.1397 1041.031,-6447.1396"/>
</g>
<!-- n12 -->
<g id="node13" class="node">
<title>n12</title>
<ellipse fill="none" stroke="#000000" cx="970.5309" cy="-6079.7061" rx="107.0879" ry="107.0879"/>
<text text-anchor="middle" x="970.5309" y="-6075.5061" font-family="Times,serif" font-size="14.00" fill="#000000">X:1 Y:0 C:((2, 4), (2, 0))</text>
</g>
<!-- n11&#45;&gt;n12 -->
<g id="edge17" class="edge">
<title>n11-&gt;n12</title>
<path fill="none" stroke="#000000" d="M1009.7958,-6226.2684C1006.8443,-6215.2516 1003.8313,-6204.0051 1000.8521,-6192.8848"/>
<polygon fill="#000000" stroke="#000000" points="1004.2138,-6191.9076 998.2452,-6183.154 997.4523,-6193.7191 1004.2138,-6191.9076"/>
</g>
<!-- n13 -->
<g id="node14" class="node">
<title>n13</title>
<ellipse fill="none" stroke="#000000" cx="970.5309" cy="-5829.6182" rx="107.0879" ry="107.0879"/>
<text text-anchor="middle" x="970.5309" y="-5825.4182" font-family="Times,serif" font-size="14.00" fill="#000000">X:1 Y:1 C:((2, 4), (2, 0))</text>
</g>
<!-- n12&#45;&gt;n13 -->
<g id="edge18" class="edge">
<title>n12-&gt;n13</title>
<path fill="none" stroke="#000000" d="M963.8427,-5972.558C963.7831,-5963.9821 963.7666,-5955.2915 963.7932,-5946.6521"/>
<polygon fill="#000000" stroke="#000000" points="967.2936,-5946.5613 963.8443,-5936.5437 960.2937,-5946.5259 967.2936,-5946.5613"/>
</g>
<!-- n13&#45;&gt;n12 -->
<g id="edge19" class="edge">
<title>n13-&gt;n12</title>
<path fill="none" stroke="#000000" d="M977.2175,-5936.5437C977.2779,-5945.1176 977.2951,-5953.8076 977.2692,-5962.4479"/>
<polygon fill="#000000" stroke="#000000" points="973.7688,-5962.5407 977.2191,-5972.558 980.7688,-5962.5755 973.7688,-5962.5407"/>
</g>
<!-- n14 -->
<g id="node15" class="node">
<title>n14</title>
<ellipse fill="none" stroke="#000000" cx="970.5309" cy="-5579.5304" rx="107.0879" ry="107.0879"/>
<text text-anchor="middle" x="970.5309" y="-5575.3304" font-family="Times,serif" font-size="14.00" fill="#000000">X:1 Y:2 C:((2, 4), (2, 0))</text>
</g>
<!-- n13&#45;&gt;n14 -->
<g id="edge20" class="edge">
<title>n13-&gt;n14</title>
<path fill="none" stroke="#000000" d="M963.8427,-5722.4702C963.7831,-5713.8943 963.7666,-5705.2037 963.7932,-5696.5643"/>
<polygon fill="#000000" stroke="#000000" points="967.2936,-5696.4735 963.8443,-5686.4559 960.2937,-5696.4381 967.2936,-5696.4735"/>
</g>
<!-- n14&#45;&gt;n13 -->
<g id="edge21" class="edge">
<title>n14-&gt;n13</title>
<path fill="none" stroke="#000000" d="M977.2175,-5686.4559C977.2779,-5695.0298 977.2951,-5703.7198 977.2692,-5712.3601"/>
<polygon fill="#000000" stroke="#000000" points="973.7688,-5712.4529 977.2191,-5722.4702 980.7688,-5712.4877 973.7688,-5712.4529"/>
</g>
<!-- n15 -->
<g id="node16" class="node">
<title>n15</title>
<ellipse fill="none" stroke="#000000" cx="902.5309" cy="-5329.4426" rx="107.0879" ry="107.0879"/>
<text text-anchor="middle" x="902.5309" y="-5325.2426" font-family="Times,serif" font-size="14.00" fill="#000000">X:1 Y:3 C:((2, 4), (2, 0))</text>
</g>
<!-- n14&#45;&gt;n15 -->
<g id="edge22" class="edge">
<title>n14-&gt;n15</title>
<path fill="none" stroke="#000000" d="M936.2282,-5477.8101C933.1123,-5466.7233 930.0004,-5455.3829 926.992,-5444.1543"/>
<polygon fill="#000000" stroke="#000000" points="930.3305,-5443.089 924.3774,-5434.3248 923.5657,-5444.8885 930.3305,-5443.089"/>
</g>
<!-- n15&#45;&gt;n14 -->
<g id="edge23" class="edge">
<title>n15-&gt;n14</title>
<path fill="none" stroke="#000000" d="M936.7727,-5430.946C939.8978,-5442.0621 943.0195,-5453.4358 946.0375,-5464.6982"/>
<polygon fill="#000000" stroke="#000000" points="942.7071,-5465.7936 948.6604,-5474.5577 949.4718,-5463.9939 942.7071,-5465.7936"/>
</g>
<!-- n16 -->
<g id="node17" class="node">
<title>n16</title>
<ellipse fill="none" stroke="#000000" cx="902.5309" cy="-5079.3547" rx="107.0879" ry="107.0879"/>
<text text-anchor="middle" x="902.5309" y="-5075.1547" font-family="Times,serif" font-size="14.00" fill="#000000">X:1 Y:4 C:((2, 4), (2, 0))</text>
</g>
<!-- n15&#45;&gt;n16 -->
<g id="edge24" class="edge">
<title>n15-&gt;n16</title>
<path fill="none" stroke="#000000" d="M895.8427,-5222.2945C895.7831,-5213.7186 895.7666,-5205.028 895.7932,-5196.3886"/>
<polygon fill="#000000" stroke="#000000" points="899.2936,-5196.2978 895.8443,-5186.2802 892.2937,-5196.2624 899.2936,-5196.2978"/>
</g>
<!-- n16&#45;&gt;n15 -->
<g id="edge25" class="edge">
<title>n16-&gt;n15</title>
<path fill="none" stroke="#000000" d="M909.2175,-5186.2802C909.2779,-5194.8541 909.2951,-5203.5441 909.2692,-5212.1844"/>
<polygon fill="#000000" stroke="#000000" points="905.7688,-5212.2772 909.2191,-5222.2945 912.7688,-5212.312 905.7688,-5212.2772"/>
</g>
<!-- n17 -->
<g id="node18" class="node">
<title>n17</title>
<ellipse fill="none" stroke="#000000" cx="902.5309" cy="-4829.2669" rx="107.0879" ry="107.0879"/>
<text text-anchor="middle" x="902.5309" y="-4825.0669" font-family="Times,serif" font-size="14.00" fill="#000000">X:2 Y:4 C:((2, 4), (2, 0))</text>
</g>
<!-- n16&#45;&gt;n17 -->
<g id="edge26" class="edge">
<title>n16-&gt;n17</title>
<path fill="none" stroke="#000000" d="M895.8427,-4972.2066C895.7831,-4963.6307 895.7666,-4954.9402 895.7932,-4946.3008"/>
<polygon fill="#000000" stroke="#000000" points="899.2936,-4946.21 895.8443,-4936.1924 892.2937,-4946.1745 899.2936,-4946.21"/>
</g>
<!-- n17&#45;&gt;n16 -->
<g id="edge27" class="edge">
<title>n17-&gt;n16</title>
<path fill="none" stroke="#000000" d="M909.2175,-4936.1924C909.2779,-4944.7663 909.2951,-4953.4563 909.2692,-4962.0965"/>
<polygon fill="#000000" stroke="#000000" points="905.7688,-4962.1894 909.2191,-4972.2066 912.7688,-4962.2242 905.7688,-4962.1894"/>
</g>
<!-- n18 -->
<g id="node19" class="node">
<title>n18</title>
<ellipse fill="none" stroke="#000000" cx="902.5309" cy="-4579.179" rx="107.0879" ry="107.0879"/>
<text text-anchor="middle" x="902.5309" y="-4574.979" font-family="Times,serif" font-size="14.00" fill="#000000">X:3 Y:4 C:((2, 4), (2, 0))</text>
</g>
<!-- n17&#45;&gt;n18 -->
<g id="edge28" class="edge">
<title>n17-&gt;n18</title>
<path fill="none" stroke="#000000" d="M902.5309,-4722.1188C902.5309,-4713.7304 902.5309,-4705.2322 902.5309,-4696.7796"/>
<polygon fill="#000000" stroke="#000000" points="906.031,-4696.5022 902.5309,-4686.5022 899.031,-4696.5023 906.031,-4696.5022"/>
</g>
<!-- n19 -->
<g id="node20" class="node">
<title>n19</title>
<ellipse fill="none" stroke="#000000" cx="854.5309" cy="-4329.0912" rx="107.0879" ry="107.0879"/>
<text text-anchor="middle" x="854.5309" y="-4324.8912" font-family="Times,serif" font-size="14.00" fill="#000000">X:3 Y:3 C:((2, 4), (2, 0))</text>
</g>
<!-- n18&#45;&gt;n19 -->
<g id="edge29" class="edge">
<title>n18-&gt;n19</title>
<path fill="none" stroke="#000000" d="M882.3137,-4473.8441C880.4305,-4464.0325 878.5155,-4454.0549 876.6165,-4444.1611"/>
<polygon fill="#000000" stroke="#000000" points="880.047,-4443.4654 874.7247,-4434.3044 873.1725,-4444.7849 880.047,-4443.4654"/>
</g>
<!-- n20 -->
<g id="node21" class="node">
<title>n20</title>
<ellipse fill="none" stroke="#000000" cx="854.5309" cy="-4079.0034" rx="107.0879" ry="107.0879"/>
<text text-anchor="middle" x="854.5309" y="-4074.8034" font-family="Times,serif" font-size="14.00" fill="#000000">X:3 Y:2 C:((2, 4), (2, 0))</text>
</g>
<!-- n19&#45;&gt;n20 -->
<g id="edge30" class="edge">
<title>n19-&gt;n20</title>
<path fill="none" stroke="#000000" d="M847.8427,-4221.9431C847.7831,-4213.3672 847.7666,-4204.6766 847.7932,-4196.0373"/>
<polygon fill="#000000" stroke="#000000" points="851.2936,-4195.9464 847.8443,-4185.9289 844.2937,-4195.911 851.2936,-4195.9464"/>
</g>
<!-- n20&#45;&gt;n19 -->
<g id="edge32" class="edge">
<title>n20-&gt;n19</title>
<path fill="none" stroke="#000000" d="M861.2175,-4185.9289C861.2779,-4194.5028 861.2951,-4203.1928 861.2692,-4211.833"/>
<polygon fill="#000000" stroke="#000000" points="857.7688,-4211.9258 861.2191,-4221.9431 864.7688,-4211.9606 857.7688,-4211.9258"/>
</g>
<!-- n21 -->
<g id="node22" class="node">
<title>n21</title>
<ellipse fill="none" stroke="#000000" cx="805.5309" cy="-3803.172" rx="107.0879" ry="107.0879"/>
<text text-anchor="middle" x="805.5309" y="-3798.972" font-family="Times,serif" font-size="14.00" fill="#000000">X:3 Y:1 C:((2, 4), (2, 0))</text>
</g>
<!-- n20&#45;&gt;n21 -->
<g id="edge31" class="edge">
<title>n20-&gt;n21</title>
<path fill="none" stroke="#000000" d="M829.4378,-3974.7234C826.0624,-3956.831 822.7042,-3938.1342 819.5952,-3919.9404"/>
<polygon fill="#000000" stroke="#000000" points="823.0145,-3919.1686 817.8951,-3909.8927 816.1126,-3920.3365 823.0145,-3919.1686"/>
</g>
<!-- n23 -->
<g id="node24" class="node">
<title>n23</title>
<ellipse fill="none" stroke="#000000" cx="1037.5309" cy="-3803.172" rx="107.0879" ry="107.0879"/>
<text text-anchor="middle" x="1037.5309" y="-3798.972" font-family="Times,serif" font-size="14.00" fill="#000000">X:2 Y:2 C:((2, 4), (2, 0))</text>
</g>
<!-- n20&#45;&gt;n23 -->
<g id="edge33" class="edge">
<title>n20-&gt;n23</title>
<path fill="none" stroke="#000000" d="M909.3122,-3986.772C927.7861,-3958.2635 948.6344,-3926.8189 968.0813,-3898.1295"/>
<polygon fill="#000000" stroke="#000000" points="971.0705,-3899.9579 973.7957,-3889.7195 965.2806,-3896.0238 971.0705,-3899.9579"/>
</g>
<!-- n24 -->
<g id="node25" class="node">
<title>n24</title>
<ellipse fill="none" stroke="#000000" cx="547.5309" cy="-3803.172" rx="132.5751" ry="132.5751"/>
<text text-anchor="middle" x="547.5309" y="-3798.972" font-family="Times,serif" font-size="14.00" fill="#000000">X:4 Y:2 C:((2, 4), (2, 0), (4, 2))</text>
</g>
<!-- n20&#45;&gt;n24 -->
<g id="edge34" class="edge">
<title>n20-&gt;n24</title>
<path fill="none" stroke="#000000" d="M773.0126,-4009.3958C746.23,-3986.2445 716.4365,-3960.1866 689.5309,-3935.9594 677.1602,-3924.8203 664.2856,-3913.0446 651.5603,-3901.291"/>
<polygon fill="#000000" stroke="#000000" points="653.8068,-3898.6013 644.09,-3894.3782 649.0525,-3903.739 653.8068,-3898.6013"/>
</g>
<!-- n21&#45;&gt;n20 -->
<g id="edge36" class="edge">
<title>n21-&gt;n20</title>
<path fill="none" stroke="#000000" d="M830.5884,-3907.2632C833.9779,-3925.2246 837.3511,-3944.0018 840.4727,-3962.2709"/>
<polygon fill="#000000" stroke="#000000" points="837.0604,-3963.0837 842.1795,-3972.3598 843.9623,-3961.916 837.0604,-3963.0837"/>
</g>
<!-- n22 -->
<g id="node23" class="node">
<title>n22</title>
<ellipse fill="none" stroke="#000000" cx="805.5309" cy="-3501.5972" rx="107.0879" ry="107.0879"/>
<text text-anchor="middle" x="805.5309" y="-3497.3972" font-family="Times,serif" font-size="14.00" fill="#000000">X:3 Y:0 C:((2, 4), (2, 0))</text>
</g>
<!-- n21&#45;&gt;n22 -->
<g id="edge35" class="edge">
<title>n21-&gt;n22</title>
<path fill="none" stroke="#000000" d="M799.0384,-3695.9989C798.735,-3670.9644 798.6997,-3644.175 798.9326,-3618.7326"/>
<polygon fill="#000000" stroke="#000000" points="802.4329,-3618.7158 799.0395,-3608.6791 795.4332,-3618.6413 802.4329,-3618.7158"/>
</g>
<!-- n22&#45;&gt;n11 -->
<g id="edge38" class="edge">
<title>n22-&gt;n11</title>
<path fill="none" stroke="#000000" d="M910.7004,-3522.2929C991.7959,-3544.2573 1099.0182,-3587.6927 1153.5309,-3670.3846 1253.5947,-3822.1744 1172.5309,-3897.1988 1172.5309,-4079.0034 1172.5309,-5829.6182 1172.5309,-5829.6182 1172.5309,-5829.6182 1172.5309,-5968.5949 1123.3497,-6122.0218 1084.3566,-6221.8254"/>
<polygon fill="#000000" stroke="#000000" points="1081.0275,-6220.7273 1080.6169,-6231.3142 1087.5399,-6223.294 1081.0275,-6220.7273"/>
</g>
<!-- n22&#45;&gt;n21 -->
<g id="edge37" class="edge">
<title>n22-&gt;n21</title>
<path fill="none" stroke="#000000" d="M812.0223,-3608.6791C812.3264,-3633.7093 812.3623,-3660.4982 812.13,-3685.9439"/>
<polygon fill="#000000" stroke="#000000" points="808.6298,-3685.9623 812.0234,-3695.9989 815.6294,-3686.0366 808.6298,-3685.9623"/>
</g>
<!-- n23&#45;&gt;n14 -->
<g id="edge39" class="edge">
<title>n23-&gt;n14</title>
<path fill="none" stroke="#000000" d="M1037.5309,-3910.4442C1037.5309,-4016.7254 1037.5309,-4184.1439 1037.5309,-4329.0912 1037.5309,-5079.3547 1037.5309,-5079.3547 1037.5309,-5079.3547 1037.5309,-5238.3044 1048.3084,-5280.3509 1018.5309,-5436.4865 1016.4623,-5447.3327 1013.7736,-5458.4854 1010.725,-5469.5495"/>
<polygon fill="#000000" stroke="#000000" points="1007.3383,-5468.6631 1007.9598,-5479.2397 1014.0696,-5470.584 1007.3383,-5468.6631"/>
</g>
<!-- n23&#45;&gt;n20 -->
<g id="edge40" class="edge">
<title>n23-&gt;n20</title>
<path fill="none" stroke="#000000" d="M982.6281,-3895.5907C964.1748,-3924.0644 943.3632,-3955.4518 923.9504,-3984.0903"/>
<polygon fill="#000000" stroke="#000000" points="920.9713,-3982.2471 918.246,-3992.4854 926.7612,-3986.1812 920.9713,-3982.2471"/>
</g>
<!-- n25 -->
<g id="node26" class="node">
<title>n25</title>
<ellipse fill="none" stroke="#000000" cx="547.5309" cy="-3501.5972" rx="132.5751" ry="132.5751"/>
<text text-anchor="middle" x="547.5309" y="-3497.3972" font-family="Times,serif" font-size="14.00" fill="#000000">X:3 Y:2 C:((2, 4), (2, 0), (4, 2))</text>
</g>
<!-- n24&#45;&gt;n25 -->
<g id="edge41" class="edge">
<title>n24-&gt;n25</title>
<path fill="none" stroke="#000000" d="M547.5309,-3670.0191C547.5309,-3661.7179 547.5309,-3653.3445 547.5309,-3645.0013"/>
<polygon fill="#000000" stroke="#000000" points="551.031,-3644.8462 547.5309,-3634.8462 544.031,-3644.8463 551.031,-3644.8462"/>
</g>
<!-- n26 -->
<g id="node27" class="node">
<title>n26</title>
<ellipse fill="none" stroke="#000000" cx="467.5309" cy="-3200.0224" rx="132.5751" ry="132.5751"/>
<text text-anchor="middle" x="467.5309" y="-3195.8224" font-family="Times,serif" font-size="14.00" fill="#000000">X:3 Y:1 C:((2, 4), (2, 0), (4, 2))</text>
</g>
<!-- n25&#45;&gt;n26 -->
<g id="edge42" class="edge">
<title>n25-&gt;n26</title>
<path fill="none" stroke="#000000" d="M513.3716,-3372.8276C510.3826,-3361.5599 507.3491,-3350.1245 504.3398,-3338.7805"/>
<polygon fill="#000000" stroke="#000000" points="507.6504,-3337.6099 501.7033,-3328.8416 500.8844,-3339.4048 507.6504,-3337.6099"/>
</g>
<!-- n27 -->
<g id="node28" class="node">
<title>n27</title>
<ellipse fill="none" stroke="#000000" cx="467.5309" cy="-2898.4476" rx="132.5751" ry="132.5751"/>
<text text-anchor="middle" x="467.5309" y="-2894.2476" font-family="Times,serif" font-size="14.00" fill="#000000">X:3 Y:0 C:((2, 4), (2, 0), (4, 2))</text>
</g>
<!-- n26&#45;&gt;n27 -->
<g id="edge43" class="edge">
<title>n26-&gt;n27</title>
<path fill="none" stroke="#000000" d="M460.8242,-3067.3085C460.7826,-3058.6763 460.771,-3049.964 460.7892,-3041.2869"/>
<polygon fill="#000000" stroke="#000000" points="464.2897,-3041.1359 460.8244,-3031.1239 457.2897,-3041.1117 464.2897,-3041.1359"/>
</g>
<!-- n27&#45;&gt;n26 -->
<g id="edge44" class="edge">
<title>n27-&gt;n26</title>
<path fill="none" stroke="#000000" d="M474.2374,-3031.1239C474.279,-3039.7558 474.2908,-3048.468 474.2726,-3057.1452"/>
<polygon fill="#000000" stroke="#000000" points="470.7722,-3057.2964 474.2376,-3067.3085 477.7721,-3057.3206 470.7722,-3057.2964"/>
</g>
<!-- n28 -->
<g id="node29" class="node">
<title>n28</title>
<ellipse fill="none" stroke="#000000" cx="467.5309" cy="-2596.8728" rx="132.5751" ry="132.5751"/>
<text text-anchor="middle" x="467.5309" y="-2592.6728" font-family="Times,serif" font-size="14.00" fill="#000000">X:2 Y:0 C:((2, 4), (2, 0), (4, 2))</text>
</g>
<!-- n27&#45;&gt;n28 -->
<g id="edge45" class="edge">
<title>n27-&gt;n28</title>
<path fill="none" stroke="#000000" d="M467.5309,-2765.2947C467.5309,-2756.9935 467.5309,-2748.6201 467.5309,-2740.2768"/>
<polygon fill="#000000" stroke="#000000" points="471.031,-2740.1218 467.5309,-2730.1218 464.031,-2740.1219 471.031,-2740.1218"/>
</g>
<!-- n29 -->
<g id="node30" class="node">
<title>n29</title>
<ellipse fill="none" stroke="#000000" cx="467.5309" cy="-2295.298" rx="132.5751" ry="132.5751"/>
<text text-anchor="middle" x="467.5309" y="-2291.098" font-family="Times,serif" font-size="14.00" fill="#000000">X:1 Y:0 C:((2, 4), (2, 0), (4, 2))</text>
</g>
<!-- n28&#45;&gt;n29 -->
<g id="edge46" class="edge">
<title>n28-&gt;n29</title>
<path fill="none" stroke="#000000" d="M467.5309,-2463.7199C467.5309,-2455.4187 467.5309,-2447.0453 467.5309,-2438.702"/>
<polygon fill="#000000" stroke="#000000" points="471.031,-2438.547 467.5309,-2428.547 464.031,-2438.547 471.031,-2438.547"/>
</g>
<!-- n30 -->
<g id="node31" class="node">
<title>n30</title>
<ellipse fill="none" stroke="#000000" cx="467.5309" cy="-1993.7232" rx="132.5751" ry="132.5751"/>
<text text-anchor="middle" x="467.5309" y="-1989.5232" font-family="Times,serif" font-size="14.00" fill="#000000">X:1 Y:1 C:((2, 4), (2, 0), (4, 2))</text>
</g>
<!-- n29&#45;&gt;n30 -->
<g id="edge47" class="edge">
<title>n29-&gt;n30</title>
<path fill="none" stroke="#000000" d="M460.8242,-2162.584C460.7826,-2153.9519 460.771,-2145.2396 460.7892,-2136.5625"/>
<polygon fill="#000000" stroke="#000000" points="464.2897,-2136.4115 460.8244,-2126.3994 457.2897,-2136.3873 464.2897,-2136.4115"/>
</g>
<!-- n30&#45;&gt;n29 -->
<g id="edge48" class="edge">
<title>n30-&gt;n29</title>
<path fill="none" stroke="#000000" d="M474.2374,-2126.3994C474.279,-2135.0313 474.2908,-2143.7436 474.2726,-2152.4208"/>
<polygon fill="#000000" stroke="#000000" points="470.7722,-2152.572 474.2376,-2162.584 477.7721,-2152.5962 470.7722,-2152.572"/>
</g>
<!-- n31 -->
<g id="node32" class="node">
<title>n31</title>
<ellipse fill="none" stroke="#000000" cx="467.5309" cy="-1692.1484" rx="132.5751" ry="132.5751"/>
<text text-anchor="middle" x="467.5309" y="-1687.9484" font-family="Times,serif" font-size="14.00" fill="#000000">X:1 Y:2 C:((2, 4), (2, 0), (4, 2))</text>
</g>
<!-- n30&#45;&gt;n31 -->
<g id="edge49" class="edge">
<title>n30-&gt;n31</title>
<path fill="none" stroke="#000000" d="M460.8242,-1861.0092C460.7826,-1852.3771 460.771,-1843.6648 460.7892,-1834.9877"/>
<polygon fill="#000000" stroke="#000000" points="464.2897,-1834.8367 460.8244,-1824.8246 457.2897,-1834.8124 464.2897,-1834.8367"/>
</g>
<!-- n31&#45;&gt;n30 -->
<g id="edge50" class="edge">
<title>n31-&gt;n30</title>
<path fill="none" stroke="#000000" d="M474.2374,-1824.8246C474.279,-1833.4565 474.2908,-1842.1688 474.2726,-1850.846"/>
<polygon fill="#000000" stroke="#000000" points="470.7722,-1850.9972 474.2376,-1861.0092 477.7721,-1851.0214 470.7722,-1850.9972"/>
</g>
<!-- n32 -->
<g id="node33" class="node">
<title>n32</title>
<ellipse fill="none" stroke="#000000" cx="467.5309" cy="-1364.8301" rx="132.5751" ry="132.5751"/>
<text text-anchor="middle" x="467.5309" y="-1360.6301" font-family="Times,serif" font-size="14.00" fill="#000000">X:1 Y:3 C:((2, 4), (2, 0), (4, 2))</text>
</g>
<!-- n31&#45;&gt;n32 -->
<g id="edge51" class="edge">
<title>n31-&gt;n32</title>
<path fill="none" stroke="#000000" d="M460.8897,-1559.4874C460.7688,-1542.4516 460.7487,-1524.9508 460.8292,-1507.76"/>
<polygon fill="#000000" stroke="#000000" points="464.3296,-1507.7004 460.8883,-1497.68 457.3297,-1507.6593 464.3296,-1507.7004"/>
</g>
<!-- n37 -->
<g id="node38" class="node">
<title>n37</title>
<ellipse fill="#00ff00" stroke="#000000" cx="158.5309" cy="-1364.8301" rx="158.5618" ry="158.5618"/>
<text text-anchor="middle" x="158.5309" y="-1360.6301" font-family="Times,serif" font-size="14.00" fill="#000000">X:0 Y:2 C:((2, 4), (2, 0), (4, 2), (0, 2))</text>
</g>
<!-- n31&#45;&gt;n37 -->
<g id="edge52" class="edge">
<title>n31-&gt;n37</title>
<path fill="none" stroke="#000000" d="M376.0749,-1595.2707C344.2582,-1561.5678 308.1361,-1523.3043 274.5948,-1487.7746"/>
<polygon fill="#000000" stroke="#000000" points="276.8889,-1485.106 267.4791,-1480.237 271.7987,-1489.9113 276.8889,-1485.106"/>
</g>
<!-- n32&#45;&gt;n31 -->
<g id="edge53" class="edge">
<title>n32-&gt;n31</title>
<path fill="none" stroke="#000000" d="M474.1734,-1497.68C474.2936,-1514.7192 474.313,-1532.2206 474.2316,-1549.4091"/>
<polygon fill="#000000" stroke="#000000" points="470.7313,-1549.4668 474.1721,-1559.4874 477.7312,-1549.5083 470.7313,-1549.4668"/>
</g>
<!-- n33 -->
<g id="node34" class="node">
<title>n33</title>
<ellipse fill="none" stroke="#000000" cx="467.5309" cy="-1037.5118" rx="132.5751" ry="132.5751"/>
<text text-anchor="middle" x="467.5309" y="-1033.3118" font-family="Times,serif" font-size="14.00" fill="#000000">X:1 Y:4 C:((2, 4), (2, 0), (4, 2))</text>
</g>
<!-- n32&#45;&gt;n33 -->
<g id="edge54" class="edge">
<title>n32-&gt;n33</title>
<path fill="none" stroke="#000000" d="M460.8897,-1232.1691C460.7688,-1215.1333 460.7487,-1197.6325 460.8292,-1180.4417"/>
<polygon fill="#000000" stroke="#000000" points="464.3296,-1180.3821 460.8883,-1170.3617 457.3297,-1180.341 464.3296,-1180.3821"/>
</g>
<!-- n33&#45;&gt;n32 -->
<g id="edge55" class="edge">
<title>n33-&gt;n32</title>
<path fill="none" stroke="#000000" d="M474.1734,-1170.3617C474.2936,-1187.4009 474.313,-1204.9023 474.2316,-1222.0908"/>
<polygon fill="#000000" stroke="#000000" points="470.7313,-1222.1486 474.1721,-1232.1691 477.7312,-1222.19 470.7313,-1222.1486"/>
</g>
<!-- n34 -->
<g id="node35" class="node">
<title>n34</title>
<ellipse fill="none" stroke="#000000" cx="467.5309" cy="-735.937" rx="132.5751" ry="132.5751"/>
<text text-anchor="middle" x="467.5309" y="-731.737" font-family="Times,serif" font-size="14.00" fill="#000000">X:2 Y:4 C:((2, 4), (2, 0), (4, 2))</text>
</g>
<!-- n33&#45;&gt;n34 -->
<g id="edge56" class="edge">
<title>n33-&gt;n34</title>
<path fill="none" stroke="#000000" d="M460.8242,-904.7979C460.7826,-896.1657 460.771,-887.4534 460.7892,-878.7763"/>
<polygon fill="#000000" stroke="#000000" points="464.2897,-878.6253 460.8244,-868.6133 457.2897,-878.6011 464.2897,-878.6253"/>
</g>
<!-- n34&#45;&gt;n33 -->
<g id="edge57" class="edge">
<title>n34-&gt;n33</title>
<path fill="none" stroke="#000000" d="M474.2374,-868.6133C474.279,-877.2451 474.2908,-885.9574 474.2726,-894.6346"/>
<polygon fill="#000000" stroke="#000000" points="470.7722,-894.7858 474.2376,-904.7979 477.7721,-894.81 470.7722,-894.7858"/>
</g>
<!-- n35 -->
<g id="node36" class="node">
<title>n35</title>
<ellipse fill="none" stroke="#000000" cx="467.5309" cy="-434.3622" rx="132.5751" ry="132.5751"/>
<text text-anchor="middle" x="467.5309" y="-430.1622" font-family="Times,serif" font-size="14.00" fill="#000000">X:3 Y:4 C:((2, 4), (2, 0), (4, 2))</text>
</g>
<!-- n34&#45;&gt;n35 -->
<g id="edge58" class="edge">
<title>n34-&gt;n35</title>
<path fill="none" stroke="#000000" d="M460.8242,-603.2231C460.7826,-594.5909 460.771,-585.8786 460.7892,-577.2015"/>
<polygon fill="#000000" stroke="#000000" points="464.2897,-577.0505 460.8244,-567.0384 457.2897,-577.0263 464.2897,-577.0505"/>
</g>
<!-- n35&#45;&gt;n34 -->
<g id="edge60" class="edge">
<title>n35-&gt;n34</title>
<path fill="none" stroke="#000000" d="M474.2374,-567.0384C474.279,-575.6703 474.2908,-584.3826 474.2726,-593.0598"/>
<polygon fill="#000000" stroke="#000000" points="470.7722,-593.211 474.2376,-603.2231 477.7721,-593.2352 470.7722,-593.211"/>
</g>
<!-- n36 -->
<g id="node37" class="node">
<title>n36</title>
<ellipse fill="none" stroke="#000000" cx="467.5309" cy="-132.7874" rx="132.5751" ry="132.5751"/>
<text text-anchor="middle" x="467.5309" y="-128.5874" font-family="Times,serif" font-size="14.00" fill="#000000">X:3 Y:3 C:((2, 4), (2, 0), (4, 2))</text>
</g>
<!-- n35&#45;&gt;n36 -->
<g id="edge59" class="edge">
<title>n35-&gt;n36</title>
<path fill="none" stroke="#000000" d="M460.8242,-301.6482C460.7826,-293.0161 460.771,-284.3038 460.7892,-275.6267"/>
<polygon fill="#000000" stroke="#000000" points="464.2897,-275.4757 460.8244,-265.4636 457.2897,-275.4515 464.2897,-275.4757"/>
</g>
<!-- n36&#45;&gt;n25 -->
<g id="edge61" class="edge">
<title>n36-&gt;n25</title>
<path fill="none" stroke="#000000" d="M563.3805,-225.1061C581.9348,-248.2241 598.8946,-274.2788 609.5309,-301.5748 679.6896,-481.6229 628.5309,-542.7025 628.5309,-735.937 628.5309,-2898.4476 628.5309,-2898.4476 628.5309,-2898.4476 628.5309,-3091.6821 647.5172,-3143.3458 609.5309,-3332.8098 607.1581,-3344.6444 604.0879,-3356.7543 600.5849,-3368.7864"/>
<polygon fill="#000000" stroke="#000000" points="597.2183,-3367.828 597.6878,-3378.4125 603.9213,-3369.8454 597.2183,-3367.828"/>
</g>
<!-- n36&#45;&gt;n35 -->
<g id="edge62" class="edge">
<title>n36-&gt;n35</title>
<path fill="none" stroke="#000000" d="M474.2374,-265.4636C474.279,-274.0955 474.2908,-282.8078 474.2726,-291.485"/>
<polygon fill="#000000" stroke="#000000" points="470.7722,-291.6362 474.2376,-301.6482 477.7721,-291.6604 470.7722,-291.6362"/>
</g>
</g>
</svg>